<svg width="369" height="167" viewBox="0 0 369 167" fill="none" xmlns="http://www.w3.org/2000/svg">
<g opacity="0.5">
<circle cx="59.5" cy="59.8" r="45" fill="#FCFF7F"/>
<circle cx="59.5" cy="59.8" r="50.5" stroke="#969696" stroke-opacity="0.5" stroke-width="11"/>
</g>
<path d="M26.5655 21.5792C17.811 29.2432 12.0034 39.7204 10.1432 51.2059C8.28294 62.6914 10.4865 74.4661 16.3743 84.5016C22.2621 94.5371 31.4655 102.205 42.399 106.185C53.3325 110.164 65.3115 110.206 76.2726 106.303C87.2336 102.4 96.4903 94.7963 102.448 84.8021C108.406 74.8079 110.691 63.0489 108.911 51.5507C107.131 40.0524 101.397 29.535 92.6963 21.8101C83.9955 14.0851 72.8731 9.63648 61.245 9.23041" stroke="#2CAA00" stroke-width="10"/>
<path d="M47.134 120.664C46.7233 120.503 46.408 120.268 46.188 119.96C45.968 119.652 45.858 119.278 45.858 118.838C45.858 118.442 45.957 118.086 46.155 117.771C46.353 117.448 46.6463 117.195 47.035 117.012C47.431 116.821 47.9077 116.726 48.465 116.726C49.0223 116.726 49.4953 116.821 49.884 117.012C50.28 117.195 50.577 117.448 50.775 117.771C50.9803 118.086 51.083 118.442 51.083 118.838C51.083 119.263 50.9693 119.637 50.742 119.96C50.5147 120.275 50.203 120.51 49.807 120.664C50.2617 120.803 50.621 121.049 50.885 121.401C51.1563 121.746 51.292 122.164 51.292 122.655C51.292 123.132 51.1747 123.55 50.94 123.909C50.7053 124.261 50.3717 124.536 49.939 124.734C49.5137 124.925 49.0223 125.02 48.465 125.02C47.9077 125.02 47.4163 124.925 46.991 124.734C46.573 124.536 46.2467 124.261 46.012 123.909C45.7773 123.55 45.66 123.132 45.66 122.655C45.66 122.164 45.792 121.742 46.056 121.39C46.32 121.038 46.6793 120.796 47.134 120.664ZM50.115 118.959C50.115 118.512 49.9683 118.167 49.675 117.925C49.3817 117.683 48.9783 117.562 48.465 117.562C47.959 117.562 47.5593 117.683 47.266 117.925C46.9727 118.167 46.826 118.515 46.826 118.97C46.826 119.381 46.9763 119.711 47.277 119.96C47.585 120.209 47.981 120.334 48.465 120.334C48.9563 120.334 49.3523 120.209 49.653 119.96C49.961 119.703 50.115 119.37 50.115 118.959ZM48.465 121.104C47.9223 121.104 47.4787 121.232 47.134 121.489C46.7893 121.738 46.617 122.116 46.617 122.622C46.617 123.091 46.782 123.469 47.112 123.755C47.4493 124.041 47.9003 124.184 48.465 124.184C49.0297 124.184 49.477 124.041 49.807 123.755C50.137 123.469 50.302 123.091 50.302 122.622C50.302 122.131 50.1333 121.757 49.796 121.5C49.4587 121.236 49.015 121.104 48.465 121.104ZM52.3575 117.76V116.847H54.4255V124.8H53.4135V117.76H52.3575ZM60.0499 114.438L57.0359 126.67H56.0459L59.0489 114.438H60.0499ZM66.2713 117.628L63.2133 124.8H62.2013L65.3033 117.727H61.0573V116.869H66.2713V117.628ZM67.2602 123.997C68.1916 123.249 68.9212 122.637 69.4492 122.16C69.9772 121.676 70.4209 121.174 70.7802 120.653C71.1469 120.125 71.3302 119.608 71.3302 119.102C71.3302 118.625 71.2129 118.251 70.9782 117.98C70.7509 117.701 70.3806 117.562 69.8672 117.562C69.3686 117.562 68.9799 117.72 68.7012 118.035C68.4299 118.343 68.2832 118.757 68.2612 119.278H67.2932C67.3226 118.457 67.5719 117.822 68.0412 117.375C68.5106 116.928 69.1156 116.704 69.8562 116.704C70.6116 116.704 71.2092 116.913 71.6492 117.331C72.0966 117.749 72.3202 118.325 72.3202 119.058C72.3202 119.667 72.1369 120.261 71.7702 120.84C71.4109 121.412 71.0002 121.918 70.5382 122.358C70.0762 122.791 69.4859 123.297 68.7672 123.876H72.5512V124.712H67.2602V123.997Z" fill="#282828"/>
<path d="M47.16 148.87C46.6467 148.87 46.1867 148.787 45.78 148.62C45.3733 148.453 45.0467 148.207 44.8 147.88C44.56 147.553 44.4333 147.16 44.42 146.7H46.24C46.2667 146.96 46.3567 147.16 46.51 147.3C46.6633 147.433 46.8633 147.5 47.11 147.5C47.3633 147.5 47.5633 147.443 47.71 147.33C47.8567 147.21 47.93 147.047 47.93 146.84C47.93 146.667 47.87 146.523 47.75 146.41C47.6367 146.297 47.4933 146.203 47.32 146.13C47.1533 146.057 46.9133 145.973 46.6 145.88C46.1467 145.74 45.7767 145.6 45.49 145.46C45.2033 145.32 44.9567 145.113 44.75 144.84C44.5433 144.567 44.44 144.21 44.44 143.77C44.44 143.117 44.6767 142.607 45.15 142.24C45.6233 141.867 46.24 141.68 47 141.68C47.7733 141.68 48.3967 141.867 48.87 142.24C49.3433 142.607 49.5967 143.12 49.63 143.78H47.78C47.7667 143.553 47.6833 143.377 47.53 143.25C47.3767 143.117 47.18 143.05 46.94 143.05C46.7333 143.05 46.5667 143.107 46.44 143.22C46.3133 143.327 46.25 143.483 46.25 143.69C46.25 143.917 46.3567 144.093 46.57 144.22C46.7833 144.347 47.1167 144.483 47.57 144.63C48.0233 144.783 48.39 144.93 48.67 145.07C48.9567 145.21 49.2033 145.413 49.41 145.68C49.6167 145.947 49.72 146.29 49.72 146.71C49.72 147.11 49.6167 147.473 49.41 147.8C49.21 148.127 48.9167 148.387 48.53 148.58C48.1433 148.773 47.6867 148.87 47.16 148.87ZM56.2823 143.22V148.8H54.5723V148.04C54.399 148.287 54.1623 148.487 53.8623 148.64C53.569 148.787 53.2423 148.86 52.8823 148.86C52.4557 148.86 52.079 148.767 51.7523 148.58C51.4257 148.387 51.1723 148.11 50.9923 147.75C50.8123 147.39 50.7223 146.967 50.7223 146.48V143.22H52.4223V146.25C52.4223 146.623 52.519 146.913 52.7123 147.12C52.9057 147.327 53.1657 147.43 53.4923 147.43C53.8257 147.43 54.089 147.327 54.2823 147.12C54.4757 146.913 54.5723 146.623 54.5723 146.25V143.22H56.2823ZM59.6306 143.14C60.024 143.14 60.3673 143.22 60.6606 143.38C60.9606 143.54 61.1906 143.75 61.3506 144.01V143.22H63.0606V148.79C63.0606 149.303 62.9573 149.767 62.7506 150.18C62.5506 150.6 62.2406 150.933 61.8206 151.18C61.4073 151.427 60.8906 151.55 60.2706 151.55C59.444 151.55 58.774 151.353 58.2606 150.96C57.7473 150.573 57.454 150.047 57.3806 149.38H59.0706C59.124 149.593 59.2506 149.76 59.4506 149.88C59.6506 150.007 59.8973 150.07 60.1906 150.07C60.544 150.07 60.824 149.967 61.0306 149.76C61.244 149.56 61.3506 149.237 61.3506 148.79V148C61.184 148.26 60.954 148.473 60.6606 148.64C60.3673 148.8 60.024 148.88 59.6306 148.88C59.1706 148.88 58.754 148.763 58.3806 148.53C58.0073 148.29 57.7106 147.953 57.4906 147.52C57.2773 147.08 57.1706 146.573 57.1706 146C57.1706 145.427 57.2773 144.923 57.4906 144.49C57.7106 144.057 58.0073 143.723 58.3806 143.49C58.754 143.257 59.1706 143.14 59.6306 143.14ZM61.3506 146.01C61.3506 145.583 61.2306 145.247 60.9906 145C60.7573 144.753 60.4706 144.63 60.1306 144.63C59.7906 144.63 59.5006 144.753 59.2606 145C59.0273 145.24 58.9106 145.573 58.9106 146C58.9106 146.427 59.0273 146.767 59.2606 147.02C59.5006 147.267 59.7906 147.39 60.1306 147.39C60.4706 147.39 60.7573 147.267 60.9906 147.02C61.2306 146.773 61.3506 146.437 61.3506 146.01ZM63.9577 146C63.9577 145.427 64.0644 144.923 64.2777 144.49C64.4977 144.057 64.7944 143.723 65.1677 143.49C65.5411 143.257 65.9577 143.14 66.4177 143.14C66.8111 143.14 67.1544 143.22 67.4477 143.38C67.7477 143.54 67.9777 143.75 68.1377 144.01V143.22H69.8477V148.8H68.1377V148.01C67.9711 148.27 67.7377 148.48 67.4377 148.64C67.1444 148.8 66.8011 148.88 66.4077 148.88C65.9544 148.88 65.5411 148.763 65.1677 148.53C64.7944 148.29 64.4977 147.953 64.2777 147.52C64.0644 147.08 63.9577 146.573 63.9577 146ZM68.1377 146.01C68.1377 145.583 68.0177 145.247 67.7777 145C67.5444 144.753 67.2577 144.63 66.9177 144.63C66.5777 144.63 66.2877 144.753 66.0477 145C65.8144 145.24 65.6977 145.573 65.6977 146C65.6977 146.427 65.8144 146.767 66.0477 147.02C66.2877 147.267 66.5777 147.39 66.9177 147.39C67.2577 147.39 67.5444 147.267 67.7777 147.02C68.0177 146.773 68.1377 146.437 68.1377 146.01ZM72.7948 144.15C72.9948 143.843 73.2448 143.603 73.5448 143.43C73.8448 143.25 74.1782 143.16 74.5448 143.16V144.97H74.0748C73.6482 144.97 73.3282 145.063 73.1148 145.25C72.9015 145.43 72.7948 145.75 72.7948 146.21V148.8H71.0848V143.22H72.7948V144.15Z" fill="#282828"/>
<path d="M44.88 59.48C44.1333 59.1867 43.56 58.76 43.16 58.2C42.76 57.64 42.56 56.96 42.56 56.16C42.56 55.44 42.74 54.7933 43.1 54.22C43.46 53.6333 43.9933 53.1733 44.7 52.84C45.42 52.4933 46.2867 52.32 47.3 52.32C48.3133 52.32 49.1733 52.4933 49.88 52.84C50.6 53.1733 51.14 53.6333 51.5 54.22C51.8733 54.7933 52.06 55.44 52.06 56.16C52.06 56.9333 51.8533 57.6133 51.44 58.2C51.0267 58.7733 50.46 59.2 49.74 59.48C50.5667 59.7333 51.22 60.18 51.7 60.82C52.1933 61.4467 52.44 62.2067 52.44 63.1C52.44 63.9667 52.2267 64.7267 51.8 65.38C51.3733 66.02 50.7667 66.52 49.98 66.88C49.2067 67.2267 48.3133 67.4 47.3 67.4C46.2867 67.4 45.3933 67.2267 44.62 66.88C43.86 66.52 43.2667 66.02 42.84 65.38C42.4133 64.7267 42.2 63.9667 42.2 63.1C42.2 62.2067 42.44 61.44 42.92 60.8C43.4 60.16 44.0533 59.72 44.88 59.48ZM50.3 56.38C50.3 55.5667 50.0333 54.94 49.5 54.5C48.9667 54.06 48.2333 53.84 47.3 53.84C46.38 53.84 45.6533 54.06 45.12 54.5C44.5867 54.94 44.32 55.5733 44.32 56.4C44.32 57.1467 44.5933 57.7467 45.14 58.2C45.7 58.6533 46.42 58.88 47.3 58.88C48.1933 58.88 48.9133 58.6533 49.46 58.2C50.02 57.7333 50.3 57.1267 50.3 56.38ZM47.3 60.28C46.3133 60.28 45.5067 60.5133 44.88 60.98C44.2533 61.4333 43.94 62.12 43.94 63.04C43.94 63.8933 44.24 64.58 44.84 65.1C45.4533 65.62 46.2733 65.88 47.3 65.88C48.3267 65.88 49.14 65.62 49.74 65.1C50.34 64.58 50.64 63.8933 50.64 63.04C50.64 62.1467 50.3333 61.4667 49.72 61C49.1067 60.52 48.3 60.28 47.3 60.28ZM57.4972 59.48C56.7505 59.1867 56.1772 58.76 55.7772 58.2C55.3772 57.64 55.1772 56.96 55.1772 56.16C55.1772 55.44 55.3572 54.7933 55.7172 54.22C56.0772 53.6333 56.6105 53.1733 57.3172 52.84C58.0372 52.4933 58.9039 52.32 59.9172 52.32C60.9305 52.32 61.7905 52.4933 62.4972 52.84C63.2172 53.1733 63.7572 53.6333 64.1172 54.22C64.4905 54.7933 64.6772 55.44 64.6772 56.16C64.6772 56.9333 64.4705 57.6133 64.0572 58.2C63.6439 58.7733 63.0772 59.2 62.3572 59.48C63.1839 59.7333 63.8372 60.18 64.3172 60.82C64.8105 61.4467 65.0572 62.2067 65.0572 63.1C65.0572 63.9667 64.8439 64.7267 64.4172 65.38C63.9905 66.02 63.3839 66.52 62.5972 66.88C61.8239 67.2267 60.9305 67.4 59.9172 67.4C58.9039 67.4 58.0105 67.2267 57.2372 66.88C56.4772 66.52 55.8839 66.02 55.4572 65.38C55.0305 64.7267 54.8172 63.9667 54.8172 63.1C54.8172 62.2067 55.0572 61.44 55.5372 60.8C56.0172 60.16 56.6705 59.72 57.4972 59.48ZM62.9172 56.38C62.9172 55.5667 62.6505 54.94 62.1172 54.5C61.5839 54.06 60.8505 53.84 59.9172 53.84C58.9972 53.84 58.2705 54.06 57.7372 54.5C57.2039 54.94 56.9372 55.5733 56.9372 56.4C56.9372 57.1467 57.2105 57.7467 57.7572 58.2C58.3172 58.6533 59.0372 58.88 59.9172 58.88C60.8105 58.88 61.5305 58.6533 62.0772 58.2C62.6372 57.7333 62.9172 57.1267 62.9172 56.38ZM59.9172 60.28C58.9305 60.28 58.1239 60.5133 57.4972 60.98C56.8705 61.4333 56.5572 62.12 56.5572 63.04C56.5572 63.8933 56.8572 64.58 57.4572 65.1C58.0705 65.62 58.8905 65.88 59.9172 65.88C60.9439 65.88 61.7572 65.62 62.3572 65.1C62.9572 64.58 63.2572 63.8933 63.2572 63.04C63.2572 62.1467 62.9505 61.4667 62.3372 61C61.7239 60.52 60.9172 60.28 59.9172 60.28ZM67.0744 55.8C67.0744 54.8933 67.3477 54.1733 67.8944 53.64C68.441 53.0933 69.141 52.82 69.9944 52.82C70.8477 52.82 71.5477 53.0933 72.0944 53.64C72.641 54.1733 72.9144 54.8933 72.9144 55.8C72.9144 56.72 72.641 57.4533 72.0944 58C71.5477 58.5333 70.8477 58.8 69.9944 58.8C69.141 58.8 68.441 58.5333 67.8944 58C67.3477 57.4533 67.0744 56.72 67.0744 55.8ZM78.7544 53.04L70.6544 67H68.8544L76.9544 53.04H78.7544ZM69.9944 53.94C69.541 53.94 69.181 54.1 68.9144 54.42C68.661 54.7267 68.5344 55.1867 68.5344 55.8C68.5344 56.4133 68.661 56.88 68.9144 57.2C69.181 57.52 69.541 57.68 69.9944 57.68C70.4477 57.68 70.8077 57.52 71.0744 57.2C71.341 56.8667 71.4744 56.4 71.4744 55.8C71.4744 55.1867 71.341 54.7267 71.0744 54.42C70.8077 54.1 70.4477 53.94 69.9944 53.94ZM74.7344 64.24C74.7344 63.32 75.0077 62.5933 75.5544 62.06C76.101 61.5133 76.801 61.24 77.6544 61.24C78.5077 61.24 79.201 61.5133 79.7344 62.06C80.281 62.5933 80.5544 63.32 80.5544 64.24C80.5544 65.1467 80.281 65.8733 79.7344 66.42C79.201 66.9667 78.5077 67.24 77.6544 67.24C76.801 67.24 76.101 66.9733 75.5544 66.44C75.0077 65.8933 74.7344 65.16 74.7344 64.24ZM77.6344 62.38C77.181 62.38 76.821 62.54 76.5544 62.86C76.2877 63.1667 76.1544 63.6267 76.1544 64.24C76.1544 64.84 76.2877 65.3 76.5544 65.62C76.821 65.9267 77.181 66.08 77.6344 66.08C78.0877 66.08 78.4477 65.9267 78.7144 65.62C78.981 65.3 79.1144 64.84 79.1144 64.24C79.1144 63.6267 78.981 63.1667 78.7144 62.86C78.4477 62.54 78.0877 62.38 77.6344 62.38Z" fill="black"/>
<g opacity="0.5">
<circle cx="184.5" cy="59.8" r="45" fill="#FCFF7F"/>
<circle cx="184.5" cy="59.8" r="50.5" stroke="#969696" stroke-opacity="0.5" stroke-width="11"/>
</g>
<path d="M141.374 84.5017C145.771 91.9952 152.044 98.2139 159.576 102.545C167.107 106.876 175.637 109.169 184.325 109.2C193.013 109.23 201.559 106.996 209.121 102.718C216.683 98.4395 222.999 92.2648 227.448 84.8021C231.897 77.3394 234.324 68.8463 234.491 60.1598C234.658 51.4734 232.558 42.8933 228.399 35.2654C224.24 27.6374 218.165 21.2247 210.774 16.6594C203.382 12.0941 194.928 9.53362 186.245 9.23041" stroke="#2CAA00" stroke-width="10"/>
<path d="M166.918 117.76V116.847H168.986V124.8H167.974V117.76H166.918ZM170.441 117.76V116.847H172.509V124.8H171.497V117.76H170.441ZM175.681 120.664C175.27 120.503 174.955 120.268 174.735 119.96C174.515 119.652 174.405 119.278 174.405 118.838C174.405 118.442 174.504 118.086 174.702 117.771C174.9 117.448 175.193 117.195 175.582 117.012C175.978 116.821 176.455 116.726 177.012 116.726C177.569 116.726 178.042 116.821 178.431 117.012C178.827 117.195 179.124 117.448 179.322 117.771C179.527 118.086 179.63 118.442 179.63 118.838C179.63 119.263 179.516 119.637 179.289 119.96C179.062 120.275 178.75 120.51 178.354 120.664C178.809 120.803 179.168 121.049 179.432 121.401C179.703 121.746 179.839 122.164 179.839 122.655C179.839 123.132 179.722 123.55 179.487 123.909C179.252 124.261 178.919 124.536 178.486 124.734C178.061 124.925 177.569 125.02 177.012 125.02C176.455 125.02 175.963 124.925 175.538 124.734C175.12 124.536 174.794 124.261 174.559 123.909C174.324 123.55 174.207 123.132 174.207 122.655C174.207 122.164 174.339 121.742 174.603 121.39C174.867 121.038 175.226 120.796 175.681 120.664ZM178.662 118.959C178.662 118.512 178.515 118.167 178.222 117.925C177.929 117.683 177.525 117.562 177.012 117.562C176.506 117.562 176.106 117.683 175.813 117.925C175.52 118.167 175.373 118.515 175.373 118.97C175.373 119.381 175.523 119.711 175.824 119.96C176.132 120.209 176.528 120.334 177.012 120.334C177.503 120.334 177.899 120.209 178.2 119.96C178.508 119.703 178.662 119.37 178.662 118.959ZM177.012 121.104C176.469 121.104 176.026 121.232 175.681 121.489C175.336 121.738 175.164 122.116 175.164 122.622C175.164 123.091 175.329 123.469 175.659 123.755C175.996 124.041 176.447 124.184 177.012 124.184C177.577 124.184 178.024 124.041 178.354 123.755C178.684 123.469 178.849 123.091 178.849 122.622C178.849 122.131 178.68 121.757 178.343 121.5C178.006 121.236 177.562 121.104 177.012 121.104ZM185.073 114.438L182.059 126.67H181.069L184.072 114.438H185.073ZM186.136 117.76V116.847H188.204V124.8H187.192V117.76H186.136ZM189.802 123.997C190.734 123.249 191.463 122.637 191.991 122.16C192.519 121.676 192.963 121.174 193.322 120.653C193.689 120.125 193.872 119.608 193.872 119.102C193.872 118.625 193.755 118.251 193.52 117.98C193.293 117.701 192.923 117.562 192.409 117.562C191.911 117.562 191.522 117.72 191.243 118.035C190.972 118.343 190.825 118.757 190.803 119.278H189.835C189.865 118.457 190.114 117.822 190.583 117.375C191.053 116.928 191.658 116.704 192.398 116.704C193.154 116.704 193.751 116.913 194.191 117.331C194.639 117.749 194.862 118.325 194.862 119.058C194.862 119.667 194.679 120.261 194.312 120.84C193.953 121.412 193.542 121.918 193.08 122.358C192.618 122.791 192.028 123.297 191.309 123.876H195.093V124.712H189.802V123.997ZM196.25 120.741C196.25 119.48 196.456 118.497 196.866 117.793C197.277 117.082 197.996 116.726 199.022 116.726C200.042 116.726 200.757 117.082 201.167 117.793C201.578 118.497 201.783 119.48 201.783 120.741C201.783 122.024 201.578 123.022 201.167 123.733C200.757 124.444 200.042 124.8 199.022 124.8C197.996 124.8 197.277 124.444 196.866 123.733C196.456 123.022 196.25 122.024 196.25 120.741ZM200.793 120.741C200.793 120.103 200.749 119.564 200.661 119.124C200.581 118.677 200.408 118.317 200.144 118.046C199.888 117.775 199.514 117.639 199.022 117.639C198.524 117.639 198.142 117.775 197.878 118.046C197.622 118.317 197.449 118.677 197.361 119.124C197.281 119.564 197.24 120.103 197.24 120.741C197.24 121.401 197.281 121.955 197.361 122.402C197.449 122.849 197.622 123.209 197.878 123.48C198.142 123.751 198.524 123.887 199.022 123.887C199.514 123.887 199.888 123.751 200.144 123.48C200.408 123.209 200.581 122.849 200.661 122.402C200.749 121.955 200.793 121.401 200.793 120.741Z" fill="#282828"/>
<path d="M172.16 148.87C171.647 148.87 171.187 148.787 170.78 148.62C170.373 148.453 170.047 148.207 169.8 147.88C169.56 147.553 169.433 147.16 169.42 146.7H171.24C171.267 146.96 171.357 147.16 171.51 147.3C171.663 147.433 171.863 147.5 172.11 147.5C172.363 147.5 172.563 147.443 172.71 147.33C172.857 147.21 172.93 147.047 172.93 146.84C172.93 146.667 172.87 146.523 172.75 146.41C172.637 146.297 172.493 146.203 172.32 146.13C172.153 146.057 171.913 145.973 171.6 145.88C171.147 145.74 170.777 145.6 170.49 145.46C170.203 145.32 169.957 145.113 169.75 144.84C169.543 144.567 169.44 144.21 169.44 143.77C169.44 143.117 169.677 142.607 170.15 142.24C170.623 141.867 171.24 141.68 172 141.68C172.773 141.68 173.397 141.867 173.87 142.24C174.343 142.607 174.597 143.12 174.63 143.78H172.78C172.767 143.553 172.683 143.377 172.53 143.25C172.377 143.117 172.18 143.05 171.94 143.05C171.733 143.05 171.567 143.107 171.44 143.22C171.313 143.327 171.25 143.483 171.25 143.69C171.25 143.917 171.357 144.093 171.57 144.22C171.783 144.347 172.117 144.483 172.57 144.63C173.023 144.783 173.39 144.93 173.67 145.07C173.957 145.21 174.203 145.413 174.41 145.68C174.617 145.947 174.72 146.29 174.72 146.71C174.72 147.11 174.617 147.473 174.41 147.8C174.21 148.127 173.917 148.387 173.53 148.58C173.143 148.773 172.687 148.87 172.16 148.87ZM181.282 143.22V148.8H179.572V148.04C179.399 148.287 179.162 148.487 178.862 148.64C178.569 148.787 178.242 148.86 177.882 148.86C177.456 148.86 177.079 148.767 176.752 148.58C176.426 148.387 176.172 148.11 175.992 147.75C175.812 147.39 175.722 146.967 175.722 146.48V143.22H177.422V146.25C177.422 146.623 177.519 146.913 177.712 147.12C177.906 147.327 178.166 147.43 178.492 147.43C178.826 147.43 179.089 147.327 179.282 147.12C179.476 146.913 179.572 146.623 179.572 146.25V143.22H181.282ZM184.631 143.14C185.024 143.14 185.367 143.22 185.661 143.38C185.961 143.54 186.191 143.75 186.351 144.01V143.22H188.061V148.79C188.061 149.303 187.957 149.767 187.751 150.18C187.551 150.6 187.241 150.933 186.821 151.18C186.407 151.427 185.891 151.55 185.271 151.55C184.444 151.55 183.774 151.353 183.261 150.96C182.747 150.573 182.454 150.047 182.381 149.38H184.071C184.124 149.593 184.251 149.76 184.451 149.88C184.651 150.007 184.897 150.07 185.191 150.07C185.544 150.07 185.824 149.967 186.031 149.76C186.244 149.56 186.351 149.237 186.351 148.79V148C186.184 148.26 185.954 148.473 185.661 148.64C185.367 148.8 185.024 148.88 184.631 148.88C184.171 148.88 183.754 148.763 183.381 148.53C183.007 148.29 182.711 147.953 182.491 147.52C182.277 147.08 182.171 146.573 182.171 146C182.171 145.427 182.277 144.923 182.491 144.49C182.711 144.057 183.007 143.723 183.381 143.49C183.754 143.257 184.171 143.14 184.631 143.14ZM186.351 146.01C186.351 145.583 186.231 145.247 185.991 145C185.757 144.753 185.471 144.63 185.131 144.63C184.791 144.63 184.501 144.753 184.261 145C184.027 145.24 183.911 145.573 183.911 146C183.911 146.427 184.027 146.767 184.261 147.02C184.501 147.267 184.791 147.39 185.131 147.39C185.471 147.39 185.757 147.267 185.991 147.02C186.231 146.773 186.351 146.437 186.351 146.01ZM188.958 146C188.958 145.427 189.064 144.923 189.278 144.49C189.498 144.057 189.794 143.723 190.168 143.49C190.541 143.257 190.958 143.14 191.418 143.14C191.811 143.14 192.154 143.22 192.448 143.38C192.748 143.54 192.978 143.75 193.138 144.01V143.22H194.848V148.8H193.138V148.01C192.971 148.27 192.738 148.48 192.438 148.64C192.144 148.8 191.801 148.88 191.408 148.88C190.954 148.88 190.541 148.763 190.168 148.53C189.794 148.29 189.498 147.953 189.278 147.52C189.064 147.08 188.958 146.573 188.958 146ZM193.138 146.01C193.138 145.583 193.018 145.247 192.778 145C192.544 144.753 192.258 144.63 191.918 144.63C191.578 144.63 191.288 144.753 191.048 145C190.814 145.24 190.698 145.573 190.698 146C190.698 146.427 190.814 146.767 191.048 147.02C191.288 147.267 191.578 147.39 191.918 147.39C192.258 147.39 192.544 147.267 192.778 147.02C193.018 146.773 193.138 146.437 193.138 146.01ZM197.795 144.15C197.995 143.843 198.245 143.603 198.545 143.43C198.845 143.25 199.178 143.16 199.545 143.16V144.97H199.075C198.648 144.97 198.328 145.063 198.115 145.25C197.902 145.43 197.795 145.75 197.795 146.21V148.8H196.085V143.22H197.795V144.15Z" fill="#282828"/>
<path d="M175.3 55.98C175.007 54.5 174.093 53.76 172.56 53.76C171.373 53.76 170.487 54.22 169.9 55.14C169.313 56.0467 169.027 57.5467 169.04 59.64C169.347 58.9467 169.853 58.4067 170.56 58.02C171.28 57.62 172.08 57.42 172.96 57.42C174.333 57.42 175.427 57.8467 176.24 58.7C177.067 59.5533 177.48 60.7333 177.48 62.24C177.48 63.1467 177.3 63.96 176.94 64.68C176.593 65.4 176.06 65.9733 175.34 66.4C174.633 66.8267 173.773 67.04 172.76 67.04C171.387 67.04 170.313 66.7333 169.54 66.12C168.767 65.5067 168.227 64.66 167.92 63.58C167.613 62.5 167.46 61.1667 167.46 59.58C167.46 54.6867 169.167 52.24 172.58 52.24C173.887 52.24 174.913 52.5933 175.66 53.3C176.407 54.0067 176.847 54.9 176.98 55.98H175.3ZM172.58 58.96C172.007 58.96 171.467 59.08 170.96 59.32C170.453 59.5467 170.04 59.9 169.72 60.38C169.413 60.8467 169.26 61.42 169.26 62.1C169.26 63.1133 169.553 63.94 170.14 64.58C170.727 65.2067 171.567 65.52 172.66 65.52C173.593 65.52 174.333 65.2333 174.88 64.66C175.44 64.0733 175.72 63.2867 175.72 62.3C175.72 61.26 175.453 60.4467 174.92 59.86C174.387 59.26 173.607 58.96 172.58 58.96ZM187.995 55.98C187.702 54.5 186.789 53.76 185.255 53.76C184.069 53.76 183.182 54.22 182.595 55.14C182.009 56.0467 181.722 57.5467 181.735 59.64C182.042 58.9467 182.549 58.4067 183.255 58.02C183.975 57.62 184.775 57.42 185.655 57.42C187.029 57.42 188.122 57.8467 188.935 58.7C189.762 59.5533 190.175 60.7333 190.175 62.24C190.175 63.1467 189.995 63.96 189.635 64.68C189.289 65.4 188.755 65.9733 188.035 66.4C187.329 66.8267 186.469 67.04 185.455 67.04C184.082 67.04 183.009 66.7333 182.235 66.12C181.462 65.5067 180.922 64.66 180.615 63.58C180.309 62.5 180.155 61.1667 180.155 59.58C180.155 54.6867 181.862 52.24 185.275 52.24C186.582 52.24 187.609 52.5933 188.355 53.3C189.102 54.0067 189.542 54.9 189.675 55.98H187.995ZM185.275 58.96C184.702 58.96 184.162 59.08 183.655 59.32C183.149 59.5467 182.735 59.9 182.415 60.38C182.109 60.8467 181.955 61.42 181.955 62.1C181.955 63.1133 182.249 63.94 182.835 64.58C183.422 65.2067 184.262 65.52 185.355 65.52C186.289 65.52 187.029 65.2333 187.575 64.66C188.135 64.0733 188.415 63.2867 188.415 62.3C188.415 61.26 188.149 60.4467 187.615 59.86C187.082 59.26 186.302 58.96 185.275 58.96ZM192.231 55.8C192.231 54.8933 192.504 54.1733 193.051 53.64C193.597 53.0933 194.297 52.82 195.151 52.82C196.004 52.82 196.704 53.0933 197.251 53.64C197.797 54.1733 198.071 54.8933 198.071 55.8C198.071 56.72 197.797 57.4533 197.251 58C196.704 58.5333 196.004 58.8 195.151 58.8C194.297 58.8 193.597 58.5333 193.051 58C192.504 57.4533 192.231 56.72 192.231 55.8ZM203.911 53.04L195.811 67H194.011L202.111 53.04H203.911ZM195.151 53.94C194.697 53.94 194.337 54.1 194.071 54.42C193.817 54.7267 193.691 55.1867 193.691 55.8C193.691 56.4133 193.817 56.88 194.071 57.2C194.337 57.52 194.697 57.68 195.151 57.68C195.604 57.68 195.964 57.52 196.231 57.2C196.497 56.8667 196.631 56.4 196.631 55.8C196.631 55.1867 196.497 54.7267 196.231 54.42C195.964 54.1 195.604 53.94 195.151 53.94ZM199.891 64.24C199.891 63.32 200.164 62.5933 200.711 62.06C201.257 61.5133 201.957 61.24 202.811 61.24C203.664 61.24 204.357 61.5133 204.891 62.06C205.437 62.5933 205.711 63.32 205.711 64.24C205.711 65.1467 205.437 65.8733 204.891 66.42C204.357 66.9667 203.664 67.24 202.811 67.24C201.957 67.24 201.257 66.9733 200.711 66.44C200.164 65.8933 199.891 65.16 199.891 64.24ZM202.791 62.38C202.337 62.38 201.977 62.54 201.711 62.86C201.444 63.1667 201.311 63.6267 201.311 64.24C201.311 64.84 201.444 65.3 201.711 65.62C201.977 65.9267 202.337 66.08 202.791 66.08C203.244 66.08 203.604 65.9267 203.871 65.62C204.137 65.3 204.271 64.84 204.271 64.24C204.271 63.6267 204.137 63.1667 203.871 62.86C203.604 62.54 203.244 62.38 202.791 62.38Z" fill="black"/>
<g opacity="0.5">
<circle cx="309.5" cy="59.8" r="45" fill="#FCFF7F"/>
<circle cx="309.5" cy="59.8" r="50.5" stroke="#969696" stroke-opacity="0.5" stroke-width="11"/>
</g>
<path d="M307.755 109.169C321.008 109.632 333.902 104.812 343.6 95.7676C353.298 86.7238 359.007 74.1977 359.47 60.9449C359.932 47.6922 355.112 34.7984 346.068 25.1C337.024 15.4017 324.498 9.69321 311.245 9.23041" stroke="#2CAA00" stroke-width="10"/>
<path d="M292.918 117.76V116.847H294.986V124.8H293.974V117.76H292.918ZM296.441 117.76V116.847H298.509V124.8H297.497V117.76H296.441ZM301.681 120.664C301.27 120.503 300.955 120.268 300.735 119.96C300.515 119.652 300.405 119.278 300.405 118.838C300.405 118.442 300.504 118.086 300.702 117.771C300.9 117.448 301.193 117.195 301.582 117.012C301.978 116.821 302.455 116.726 303.012 116.726C303.569 116.726 304.042 116.821 304.431 117.012C304.827 117.195 305.124 117.448 305.322 117.771C305.527 118.086 305.63 118.442 305.63 118.838C305.63 119.263 305.516 119.637 305.289 119.96C305.062 120.275 304.75 120.51 304.354 120.664C304.809 120.803 305.168 121.049 305.432 121.401C305.703 121.746 305.839 122.164 305.839 122.655C305.839 123.132 305.722 123.55 305.487 123.909C305.252 124.261 304.919 124.536 304.486 124.734C304.061 124.925 303.569 125.02 303.012 125.02C302.455 125.02 301.963 124.925 301.538 124.734C301.12 124.536 300.794 124.261 300.559 123.909C300.324 123.55 300.207 123.132 300.207 122.655C300.207 122.164 300.339 121.742 300.603 121.39C300.867 121.038 301.226 120.796 301.681 120.664ZM304.662 118.959C304.662 118.512 304.515 118.167 304.222 117.925C303.929 117.683 303.525 117.562 303.012 117.562C302.506 117.562 302.106 117.683 301.813 117.925C301.52 118.167 301.373 118.515 301.373 118.97C301.373 119.381 301.523 119.711 301.824 119.96C302.132 120.209 302.528 120.334 303.012 120.334C303.503 120.334 303.899 120.209 304.2 119.96C304.508 119.703 304.662 119.37 304.662 118.959ZM303.012 121.104C302.469 121.104 302.026 121.232 301.681 121.489C301.336 121.738 301.164 122.116 301.164 122.622C301.164 123.091 301.329 123.469 301.659 123.755C301.996 124.041 302.447 124.184 303.012 124.184C303.577 124.184 304.024 124.041 304.354 123.755C304.684 123.469 304.849 123.091 304.849 122.622C304.849 122.131 304.68 121.757 304.343 121.5C304.006 121.236 303.562 121.104 303.012 121.104ZM311.073 114.438L308.059 126.67H307.069L310.072 114.438H311.073ZM313.687 122.666C313.76 123.084 313.929 123.407 314.193 123.634C314.464 123.861 314.827 123.975 315.282 123.975C315.89 123.975 316.338 123.737 316.624 123.26C316.917 122.783 317.056 121.98 317.042 120.851C316.888 121.181 316.631 121.441 316.272 121.632C315.912 121.815 315.513 121.907 315.073 121.907C314.581 121.907 314.141 121.808 313.753 121.61C313.371 121.405 313.071 121.108 312.851 120.719C312.631 120.33 312.521 119.861 312.521 119.311C312.521 118.526 312.748 117.896 313.203 117.419C313.657 116.935 314.303 116.693 315.139 116.693C316.165 116.693 316.884 117.027 317.295 117.694C317.713 118.361 317.922 119.355 317.922 120.675C317.922 121.599 317.837 122.362 317.669 122.963C317.507 123.564 317.229 124.023 316.833 124.338C316.444 124.653 315.909 124.811 315.227 124.811C314.479 124.811 313.896 124.609 313.478 124.206C313.06 123.803 312.821 123.289 312.763 122.666H313.687ZM315.238 121.06C315.729 121.06 316.132 120.91 316.448 120.609C316.763 120.301 316.921 119.887 316.921 119.366C316.921 118.816 316.767 118.372 316.459 118.035C316.151 117.698 315.718 117.529 315.161 117.529C314.647 117.529 314.237 117.69 313.929 118.013C313.628 118.336 313.478 118.761 313.478 119.289C313.478 119.824 313.628 120.253 313.929 120.576C314.229 120.899 314.666 121.06 315.238 121.06ZM319.328 120.741C319.328 119.48 319.534 118.497 319.944 117.793C320.355 117.082 321.074 116.726 322.1 116.726C323.12 116.726 323.835 117.082 324.245 117.793C324.656 118.497 324.861 119.48 324.861 120.741C324.861 122.024 324.656 123.022 324.245 123.733C323.835 124.444 323.12 124.8 322.1 124.8C321.074 124.8 320.355 124.444 319.944 123.733C319.534 123.022 319.328 122.024 319.328 120.741ZM323.871 120.741C323.871 120.103 323.827 119.564 323.739 119.124C323.659 118.677 323.486 118.317 323.222 118.046C322.966 117.775 322.592 117.639 322.1 117.639C321.602 117.639 321.22 117.775 320.956 118.046C320.7 118.317 320.527 118.677 320.439 119.124C320.359 119.564 320.318 120.103 320.318 120.741C320.318 121.401 320.359 121.955 320.439 122.402C320.527 122.849 320.7 123.209 320.956 123.48C321.22 123.751 321.602 123.887 322.1 123.887C322.592 123.887 322.966 123.751 323.222 123.48C323.486 123.209 323.659 122.849 323.739 122.402C323.827 121.955 323.871 121.401 323.871 120.741Z" fill="#282828"/>
<path d="M275.87 145.2C276.277 145.287 276.603 145.49 276.85 145.81C277.097 146.123 277.22 146.483 277.22 146.89C277.22 147.477 277.013 147.943 276.6 148.29C276.193 148.63 275.623 148.8 274.89 148.8H271.62V141.78H274.78C275.493 141.78 276.05 141.943 276.45 142.27C276.857 142.597 277.06 143.04 277.06 143.6C277.06 144.013 276.95 144.357 276.73 144.63C276.517 144.903 276.23 145.093 275.87 145.2ZM273.33 144.62H274.45C274.73 144.62 274.943 144.56 275.09 144.44C275.243 144.313 275.32 144.13 275.32 143.89C275.32 143.65 275.243 143.467 275.09 143.34C274.943 143.213 274.73 143.15 274.45 143.15H273.33V144.62ZM274.59 147.42C274.877 147.42 275.097 147.357 275.25 147.23C275.41 147.097 275.49 146.907 275.49 146.66C275.49 146.413 275.407 146.22 275.24 146.08C275.08 145.94 274.857 145.87 274.57 145.87H273.33V147.42H274.59ZM279.922 141.4V148.8H278.212V141.4H279.922ZM283.701 148.88C283.154 148.88 282.661 148.763 282.221 148.53C281.788 148.297 281.444 147.963 281.191 147.53C280.944 147.097 280.821 146.59 280.821 146.01C280.821 145.437 280.948 144.933 281.201 144.5C281.454 144.06 281.801 143.723 282.241 143.49C282.681 143.257 283.174 143.14 283.721 143.14C284.268 143.14 284.761 143.257 285.201 143.49C285.641 143.723 285.988 144.06 286.241 144.5C286.494 144.933 286.621 145.437 286.621 146.01C286.621 146.583 286.491 147.09 286.231 147.53C285.978 147.963 285.628 148.297 285.181 148.53C284.741 148.763 284.248 148.88 283.701 148.88ZM283.701 147.4C284.028 147.4 284.304 147.28 284.531 147.04C284.764 146.8 284.881 146.457 284.881 146.01C284.881 145.563 284.768 145.22 284.541 144.98C284.321 144.74 284.048 144.62 283.721 144.62C283.388 144.62 283.111 144.74 282.891 144.98C282.671 145.213 282.561 145.557 282.561 146.01C282.561 146.457 282.668 146.8 282.881 147.04C283.101 147.28 283.374 147.4 283.701 147.4ZM290.068 148.88C289.522 148.88 289.028 148.763 288.588 148.53C288.155 148.297 287.812 147.963 287.558 147.53C287.312 147.097 287.188 146.59 287.188 146.01C287.188 145.437 287.315 144.933 287.568 144.5C287.822 144.06 288.168 143.723 288.608 143.49C289.048 143.257 289.542 143.14 290.088 143.14C290.635 143.14 291.128 143.257 291.568 143.49C292.008 143.723 292.355 144.06 292.608 144.5C292.862 144.933 292.988 145.437 292.988 146.01C292.988 146.583 292.858 147.09 292.598 147.53C292.345 147.963 291.995 148.297 291.548 148.53C291.108 148.763 290.615 148.88 290.068 148.88ZM290.068 147.4C290.395 147.4 290.672 147.28 290.898 147.04C291.132 146.8 291.248 146.457 291.248 146.01C291.248 145.563 291.135 145.22 290.908 144.98C290.688 144.74 290.415 144.62 290.088 144.62C289.755 144.62 289.478 144.74 289.258 144.98C289.038 145.213 288.928 145.557 288.928 146.01C288.928 146.457 289.035 146.8 289.248 147.04C289.468 147.28 289.742 147.4 290.068 147.4ZM293.555 146C293.555 145.427 293.662 144.923 293.875 144.49C294.095 144.057 294.392 143.723 294.765 143.49C295.139 143.257 295.555 143.14 296.015 143.14C296.382 143.14 296.715 143.217 297.015 143.37C297.322 143.523 297.562 143.73 297.735 143.99V141.4H299.445V148.8H297.735V148C297.575 148.267 297.345 148.48 297.045 148.64C296.752 148.8 296.409 148.88 296.015 148.88C295.555 148.88 295.139 148.763 294.765 148.53C294.392 148.29 294.095 147.953 293.875 147.52C293.662 147.08 293.555 146.573 293.555 146ZM297.735 146.01C297.735 145.583 297.615 145.247 297.375 145C297.142 144.753 296.855 144.63 296.515 144.63C296.175 144.63 295.885 144.753 295.645 145C295.412 145.24 295.295 145.573 295.295 146C295.295 146.427 295.412 146.767 295.645 147.02C295.885 147.267 296.175 147.39 296.515 147.39C296.855 147.39 297.142 147.267 297.375 147.02C297.615 146.773 297.735 146.437 297.735 146.01ZM308.152 144.04C308.152 144.447 308.058 144.82 307.872 145.16C307.685 145.493 307.398 145.763 307.012 145.97C306.625 146.177 306.145 146.28 305.572 146.28H304.512V148.8H302.802V141.78H305.572C306.132 141.78 306.605 141.877 306.992 142.07C307.378 142.263 307.668 142.53 307.862 142.87C308.055 143.21 308.152 143.6 308.152 144.04ZM305.442 144.92C305.768 144.92 306.012 144.843 306.172 144.69C306.332 144.537 306.412 144.32 306.412 144.04C306.412 143.76 306.332 143.543 306.172 143.39C306.012 143.237 305.768 143.16 305.442 143.16H304.512V144.92H305.442ZM310.752 144.15C310.952 143.843 311.202 143.603 311.502 143.43C311.802 143.25 312.135 143.16 312.502 143.16V144.97H312.032C311.605 144.97 311.285 145.063 311.072 145.25C310.859 145.43 310.752 145.75 310.752 146.21V148.8H309.042V143.22H310.752V144.15ZM318.579 145.92C318.579 146.08 318.569 146.247 318.549 146.42H314.679C314.706 146.767 314.816 147.033 315.009 147.22C315.209 147.4 315.453 147.49 315.739 147.49C316.166 147.49 316.463 147.31 316.629 146.95H318.449C318.356 147.317 318.186 147.647 317.939 147.94C317.699 148.233 317.396 148.463 317.029 148.63C316.663 148.797 316.253 148.88 315.799 148.88C315.253 148.88 314.766 148.763 314.339 148.53C313.913 148.297 313.579 147.963 313.339 147.53C313.099 147.097 312.979 146.59 312.979 146.01C312.979 145.43 313.096 144.923 313.329 144.49C313.569 144.057 313.903 143.723 314.329 143.49C314.756 143.257 315.246 143.14 315.799 143.14C316.339 143.14 316.819 143.253 317.239 143.48C317.659 143.707 317.986 144.03 318.219 144.45C318.459 144.87 318.579 145.36 318.579 145.92ZM316.829 145.47C316.829 145.177 316.729 144.943 316.529 144.77C316.329 144.597 316.079 144.51 315.779 144.51C315.493 144.51 315.249 144.593 315.049 144.76C314.856 144.927 314.736 145.163 314.689 145.47H316.829ZM321.751 148.88C321.265 148.88 320.831 148.797 320.451 148.63C320.071 148.463 319.771 148.237 319.551 147.95C319.331 147.657 319.208 147.33 319.181 146.97H320.871C320.891 147.163 320.981 147.32 321.141 147.44C321.301 147.56 321.498 147.62 321.731 147.62C321.945 147.62 322.108 147.58 322.221 147.5C322.341 147.413 322.401 147.303 322.401 147.17C322.401 147.01 322.318 146.893 322.151 146.82C321.985 146.74 321.715 146.653 321.341 146.56C320.941 146.467 320.608 146.37 320.341 146.27C320.075 146.163 319.845 146 319.651 145.78C319.458 145.553 319.361 145.25 319.361 144.87C319.361 144.55 319.448 144.26 319.621 144C319.801 143.733 320.061 143.523 320.401 143.37C320.748 143.217 321.158 143.14 321.631 143.14C322.331 143.14 322.881 143.313 323.281 143.66C323.688 144.007 323.921 144.467 323.981 145.04H322.401C322.375 144.847 322.288 144.693 322.141 144.58C322.001 144.467 321.815 144.41 321.581 144.41C321.381 144.41 321.228 144.45 321.121 144.53C321.015 144.603 320.961 144.707 320.961 144.84C320.961 145 321.045 145.12 321.211 145.2C321.385 145.28 321.651 145.36 322.011 145.44C322.425 145.547 322.761 145.653 323.021 145.76C323.281 145.86 323.508 146.027 323.701 146.26C323.901 146.487 324.005 146.793 324.011 147.18C324.011 147.507 323.918 147.8 323.731 148.06C323.551 148.313 323.288 148.513 322.941 148.66C322.601 148.807 322.205 148.88 321.751 148.88ZM327.328 148.88C326.841 148.88 326.408 148.797 326.028 148.63C325.648 148.463 325.348 148.237 325.128 147.95C324.908 147.657 324.784 147.33 324.758 146.97H326.448C326.468 147.163 326.558 147.32 326.718 147.44C326.878 147.56 327.074 147.62 327.308 147.62C327.521 147.62 327.684 147.58 327.798 147.5C327.918 147.413 327.978 147.303 327.978 147.17C327.978 147.01 327.894 146.893 327.728 146.82C327.561 146.74 327.291 146.653 326.918 146.56C326.518 146.467 326.184 146.37 325.918 146.27C325.651 146.163 325.421 146 325.228 145.78C325.034 145.553 324.938 145.25 324.938 144.87C324.938 144.55 325.024 144.26 325.198 144C325.378 143.733 325.638 143.523 325.978 143.37C326.324 143.217 326.734 143.14 327.208 143.14C327.908 143.14 328.458 143.313 328.858 143.66C329.264 144.007 329.498 144.467 329.558 145.04H327.978C327.951 144.847 327.864 144.693 327.718 144.58C327.578 144.467 327.391 144.41 327.158 144.41C326.958 144.41 326.804 144.45 326.698 144.53C326.591 144.603 326.538 144.707 326.538 144.84C326.538 145 326.621 145.12 326.788 145.2C326.961 145.28 327.228 145.36 327.588 145.44C328.001 145.547 328.338 145.653 328.598 145.76C328.858 145.86 329.084 146.027 329.278 146.26C329.478 146.487 329.581 146.793 329.588 147.18C329.588 147.507 329.494 147.8 329.308 148.06C329.128 148.313 328.864 148.513 328.518 148.66C328.178 148.807 327.781 148.88 327.328 148.88ZM336.144 143.22V148.8H334.434V148.04C334.26 148.287 334.024 148.487 333.724 148.64C333.43 148.787 333.104 148.86 332.744 148.86C332.317 148.86 331.94 148.767 331.614 148.58C331.287 148.387 331.034 148.11 330.854 147.75C330.674 147.39 330.584 146.967 330.584 146.48V143.22H332.284V146.25C332.284 146.623 332.38 146.913 332.574 147.12C332.767 147.327 333.027 147.43 333.354 147.43C333.687 147.43 333.95 147.327 334.144 147.12C334.337 146.913 334.434 146.623 334.434 146.25V143.22H336.144ZM339.082 144.15C339.282 143.843 339.532 143.603 339.832 143.43C340.132 143.25 340.465 143.16 340.832 143.16V144.97H340.362C339.935 144.97 339.615 145.063 339.402 145.25C339.189 145.43 339.082 145.75 339.082 146.21V148.8H337.372V143.22H339.082V144.15ZM346.909 145.92C346.909 146.08 346.899 146.247 346.879 146.42H343.009C343.036 146.767 343.146 147.033 343.339 147.22C343.539 147.4 343.783 147.49 344.069 147.49C344.496 147.49 344.793 147.31 344.959 146.95H346.779C346.686 147.317 346.516 147.647 346.269 147.94C346.029 148.233 345.726 148.463 345.359 148.63C344.993 148.797 344.583 148.88 344.129 148.88C343.583 148.88 343.096 148.763 342.669 148.53C342.243 148.297 341.909 147.963 341.669 147.53C341.429 147.097 341.309 146.59 341.309 146.01C341.309 145.43 341.426 144.923 341.659 144.49C341.899 144.057 342.233 143.723 342.659 143.49C343.086 143.257 343.576 143.14 344.129 143.14C344.669 143.14 345.149 143.253 345.569 143.48C345.989 143.707 346.316 144.03 346.549 144.45C346.789 144.87 346.909 145.36 346.909 145.92ZM345.159 145.47C345.159 145.177 345.059 144.943 344.859 144.77C344.659 144.597 344.409 144.51 344.109 144.51C343.823 144.51 343.579 144.593 343.379 144.76C343.186 144.927 343.066 145.163 343.019 145.47H345.159Z" fill="#282828"/>
<path d="M301.46 54.12H294.44V58.68C294.747 58.2533 295.2 57.9067 295.8 57.64C296.4 57.36 297.047 57.22 297.74 57.22C298.847 57.22 299.747 57.4533 300.44 57.92C301.133 58.3733 301.627 58.9667 301.92 59.7C302.227 60.42 302.38 61.1867 302.38 62C302.38 62.96 302.2 63.82 301.84 64.58C301.48 65.34 300.927 65.94 300.18 66.38C299.447 66.82 298.533 67.04 297.44 67.04C296.04 67.04 294.907 66.68 294.04 65.96C293.173 65.24 292.647 64.28 292.46 63.08H294.24C294.413 63.84 294.78 64.4333 295.34 64.86C295.9 65.2867 296.607 65.5 297.46 65.5C298.513 65.5 299.307 65.1867 299.84 64.56C300.373 63.92 300.64 63.08 300.64 62.04C300.64 61 300.373 60.2 299.84 59.64C299.307 59.0667 298.52 58.78 297.48 58.78C296.773 58.78 296.153 58.9533 295.62 59.3C295.1 59.6333 294.72 60.0933 294.48 60.68H292.76V52.52H301.46V54.12ZM304.799 59.62C304.799 57.3267 305.172 55.54 305.919 54.26C306.665 52.9667 307.972 52.32 309.839 52.32C311.692 52.32 312.992 52.9667 313.739 54.26C314.485 55.54 314.859 57.3267 314.859 59.62C314.859 61.9533 314.485 63.7667 313.739 65.06C312.992 66.3533 311.692 67 309.839 67C307.972 67 306.665 66.3533 305.919 65.06C305.172 63.7667 304.799 61.9533 304.799 59.62ZM313.059 59.62C313.059 58.46 312.979 57.48 312.819 56.68C312.672 55.8667 312.359 55.2133 311.879 54.72C311.412 54.2267 310.732 53.98 309.839 53.98C308.932 53.98 308.239 54.2267 307.759 54.72C307.292 55.2133 306.979 55.8667 306.819 56.68C306.672 57.48 306.599 58.46 306.599 59.62C306.599 60.82 306.672 61.8267 306.819 62.64C306.979 63.4533 307.292 64.1067 307.759 64.6C308.239 65.0933 308.932 65.34 309.839 65.34C310.732 65.34 311.412 65.0933 311.879 64.6C312.359 64.1067 312.672 63.4533 312.819 62.64C312.979 61.8267 313.059 60.82 313.059 59.62ZM316.957 55.8C316.957 54.8933 317.231 54.1733 317.777 53.64C318.324 53.0933 319.024 52.82 319.877 52.82C320.731 52.82 321.431 53.0933 321.977 53.64C322.524 54.1733 322.797 54.8933 322.797 55.8C322.797 56.72 322.524 57.4533 321.977 58C321.431 58.5333 320.731 58.8 319.877 58.8C319.024 58.8 318.324 58.5333 317.777 58C317.231 57.4533 316.957 56.72 316.957 55.8ZM328.637 53.04L320.537 67H318.737L326.837 53.04H328.637ZM319.877 53.94C319.424 53.94 319.064 54.1 318.797 54.42C318.544 54.7267 318.417 55.1867 318.417 55.8C318.417 56.4133 318.544 56.88 318.797 57.2C319.064 57.52 319.424 57.68 319.877 57.68C320.331 57.68 320.691 57.52 320.957 57.2C321.224 56.8667 321.357 56.4 321.357 55.8C321.357 55.1867 321.224 54.7267 320.957 54.42C320.691 54.1 320.331 53.94 319.877 53.94ZM324.617 64.24C324.617 63.32 324.891 62.5933 325.437 62.06C325.984 61.5133 326.684 61.24 327.537 61.24C328.391 61.24 329.084 61.5133 329.617 62.06C330.164 62.5933 330.437 63.32 330.437 64.24C330.437 65.1467 330.164 65.8733 329.617 66.42C329.084 66.9667 328.391 67.24 327.537 67.24C326.684 67.24 325.984 66.9733 325.437 66.44C324.891 65.8933 324.617 65.16 324.617 64.24ZM327.517 62.38C327.064 62.38 326.704 62.54 326.437 62.86C326.171 63.1667 326.037 63.6267 326.037 64.24C326.037 64.84 326.171 65.3 326.437 65.62C326.704 65.9267 327.064 66.08 327.517 66.08C327.971 66.08 328.331 65.9267 328.597 65.62C328.864 65.3 328.997 64.84 328.997 64.24C328.997 63.6267 328.864 63.1667 328.597 62.86C328.331 62.54 327.971 62.38 327.517 62.38Z" fill="black"/>
</svg>
